PathFileType	4	(X/Y/Z)	C:/Users/beibeiliu/ov580/test_trc/User3\sequence.24_training_dense_right.trc
DataRate	CameraRate	NumFrames	NumMarkers	Units	OrigDataRate	OrigDataStartFrame	OrigNumFrames
120	120	20	19	mm	120	172	275
Frame#	Time	ThumbCMC			ThumbMCP			ThumbIP			ThumbTip			IndexMCP			IndexPIP			IndexTip			MiddleMCP			MiddlePIP			MiddleTip			RingMCP			RingPIP			RingTip			PinkyMCP			PinkyPIP			PinkyTip			BackHand1			BackHand2			BackHand3	
		X0	Y0	Z0	X1	Y1	Z1	X2	Y2	Z2	X3	Y3	Z3	X4	Y4	Z4	X5	Y5	Z5	X6	Y6	Z6	X7	Y7	Z7	X8	Y8	Z8	X9	Y9	Z9	X10	Y10	Z10	X11	Y11	Z11	X12	Y12	Z12	X13	Y13	Z13	X14	Y14	Z14	X15	Y15	Z15	X16	Y16	Z16	X17	Y17	Z17	X18	Y18	Z18	
171	1.425	210.228	21.6946	11.3764	204.463	22.6294	-17.859	204.85	27.0367	-49.7217	201.49	28.8879	-70.4056	254.341	32.0123	-47.3828	248.013	31.9184	-72.8252	238.437	30.5409	-98.2781	250.997	6.22822	-54.2703	221.53	-4.71521	-65.1085	197.253	-14.3454	-36.0503	251.754	-15.7402	-45.0221	219.248	-19.8453	-50.3695	207.378	-20.6968	-17.1334	250.958	-31.297	-42.6218	225.054	-32.1139	-44.2686	214.677	-24.8292	-11.759	266.459	-12.4769	9.22792	254.459	-21.9055	35.0233	246.598	14.8515	26.9167	
172	1.43333	201.318	20.6601	14.7792	193.64	25.245	-15.5126	190.226	33.5661	-46.8687	191.795	34.5411	-68.8518	239.856	45.3288	-41.4627	231.911	46.5444	-69.8601	225.927	43.2641	-96.4014	240.673	21.1162	-49.9965	211.089	5.63154	-61.2451	195.771	-11.8494	-32.7586	244.945	-1.37224	-45.5823	219.941	-15.2142	-50.7991	204.987	-15.1503	-19.0462	252.898	-22.0879	-38.4579	222.855	-26.9132	-41.9241	215.176	-19.9698	-12.4821	262.185	0.103731	9.769	250.59	-11.3259	36.365	239.032	18.8103	29.1298	
173	1.44167	191.871	17.9826	18.9339	184.204	23.6252	-11.88	178.76	34.0573	-42.3189	179.314	35.8262	-66.3954	224.66	52.5419	-41.4397	220.63	51.6752	-65.6338	216.017	47.1238	-92.2171	231.883	25.4756	-48.05	204.864	8.02697	-59.3676	191.857	-11.4448	-26.5489	239.135	7.23168	-42.3503	213.314	-9.22746	-48.0215	203.549	-14.9889	-14.6437	248.851	-11.4091	-37.2771	221.979	-18.8413	-42.3114	210.374	-19.3557	-11.7017	252.949	8.34343	13.1289	246.699	-5.73141	40.5773	225.428	27.257	30.6906	
174	1.45	181.059	15.2724	21.7263	174.102	22.3346	-12.1644	167.869	27.9904	-37.1699	166.145	31.6313	-63.1473	211.739	53.8062	-39.9339	205.395	53.7435	-64.6105	201.453	48.5195	-92.9632	222.69	27.4581	-45.4076	200.225	7.27091	-57.664	184.498	-12.328	-24.446	231.499	10.4097	-41.6072	206.574	-13.1883	-44.0059	201.296	-18.2348	-11.7194	240.828	-4.98968	-37.2097	217.401	-18.896	-39.7938	208.922	-18.2438	-8.91805	247.192	15.8547	14.1204	241.795	-3.77694	40.4857	216.37	25.485	32.2871	
175	1.45833	174.036	11.3241	20.7194	164.359	16.4768	-11.3582	156.795	23.3362	-38.8664	159.176	22.1222	-59.6517	201.185	48.9579	-39.2766	194.653	49.1141	-66.6531	186.035	42.8895	-94.1482	210.567	25.8463	-45.7734	188.414	-1.86033	-56.004	184.259	-19.6308	-25.0153	222.217	6.56544	-43.2012	200.953	-16.1224	-43.2454	195.789	-20.6133	-13.7807	232.652	-7.27815	-39.8047	209.978	-20.9631	-36.9788	204.954	-25.3884	-7.60617	241.271	14.4371	14.3645	232.566	-1.15521	40.284	210.381	26.2752	30.5362	
176	1.46667	167.814	5.8807	21.2404	156.551	9.41226	-10.0924	147.336	14.244	-39.8495	151.07	11.9841	-61.504	192.349	40.2579	-45.0963	181.703	39.4776	-70.3657	174.717	31.43	-93.5025	202.095	15.3149	-50.5865	182.186	-10.6842	-55.9636	178.335	-26.8248	-21.4329	211.03	1.33461	-44.8647	194.253	-21.5779	-44.5123	190.441	-25.635	-7.82678	225.996	-11.9897	-38.4475	207.32	-31.969	-35.7329	201.845	-30.8709	-6.31274	232.641	13.8401	7.12478	228.437	-0.697185	39.9663	200.952	22.07	26.8481	
177	1.475	159.081	0.030978	22.3841	145.886	-1.19447	-8.90646	142.742	1.02332	-39.4812	134.565	-2.3493	-61.2932	178.322	30.4191	-48.7055	173.944	21.9347	-75.8484	165.813	12.598	-96.4088	195.449	5.73078	-49.5591	172.007	-22.6034	-54.3432	169.699	-35.084	-15.6639	208.144	-11.708	-44.1072	189.198	-35.6257	-41.2948	183.321	-33.07	-6.91928	220.799	-23.4401	-36.5633	198.196	-38.141	-34.6201	193.606	-30.9983	-3.51344	224.246	9.08636	9.35384	224.14	-2.59703	38.7463	193.308	19.7007	26.8304	
178	1.48333	155.105	-6.57339	23.3864	139.765	-10.4375	-10.4948	128.132	-12.3819	-37.094	125.3	-17.36	-59.1974	170.241	16.7038	-48.0219	164.468	7.50273	-74.8355	155.461	-6.74972	-97.9922	185.197	-7.25749	-50.2343	166.062	-34.69	-54.2653	162.76	-43.7916	-11.9297	195.819	-23.1391	-44.8806	183.019	-48.243	-37.012	178.138	-42.1085	-4.1929	211.191	-31.0392	-34.7507	189.874	-48.9006	-29.9612	187.194	-42.4563	-0.107005	215.869	1.93405	4.46758	218.795	-5.20075	34.804	188.459	11.8763	21.6611	
179	1.49167	148.04	-10.685	20.7502	134.985	-20.274	-6.28138	124.446	-25.7052	-30.5016	119.713	-32.3949	-54.0027	165.969	0.830773	-54.7534	153.202	-8.85248	-75.9229	150.647	-25.3272	-93.2919	178.616	-20.183	-50.3315	161.965	-49.6363	-50.7267	156.555	-54.6741	-11.4347	191.902	-37.6534	-42.0256	170.742	-58.1953	-31.0945	170.213	-46.1691	0.889028	199.926	-45.7207	-33.7897	181.819	-59.6629	-24.4709	181.141	-47.1032	5.63162	211.877	-7.47419	3.7601	212.786	-12.076	35.7541	181.967	7.51998	20.6728	
180	1.5	144.301	-17.0075	22.6444	126.852	-28.8022	-1.38111	116.943	-36.6325	-30.0887	106.337	-45.6742	-49.3028	159.614	-12.1067	-50.4697	148.976	-27.9561	-75.6552	137.837	-43.7438	-92.533	170.091	-36.0812	-49.4299	151.011	-61.567	-44.0079	150.521	-61.1834	-4.51289	181.13	-46.4979	-38.567	164.315	-70.279	-21.6709	163.773	-54.8908	4.89055	196.502	-56.1346	-28.3701	174.454	-71.2785	-16.3447	177.013	-55.1349	10.1077	208.046	-15.2417	-1.20407	208.382	-14.7098	36.3214	177.709	2.35245	18.9432	
181	1.50833	138.439	-20.3199	21.5921	120.881	-34.4324	-1.46799	108.4	-45.0671	-22.8482	100.71	-56.0615	-42.5037	150.258	-24.0738	-51.161	139.157	-42.8035	-72.4746	129.721	-60.4528	-85.2859	165.358	-47.5162	-45.6317	144.122	-73.4422	-36.843	141.675	-63.8189	2.86914	177.84	-60.9986	-33.4495	158.512	-79.2934	-14.8964	155.878	-58.1676	9.50826	187.232	-71.1224	-23.92	166.649	-78.1752	-7.88523	168.055	-62.2294	14.9107	198.572	-20.8036	1.59467	201.764	-18.086	31.9503	173.114	-5.44222	16.9635	
182	1.51667	132.577	-19.8495	24.1319	116.389	-36.6603	5.25999	99.2672	-49.1616	-22.8858	90.1568	-61.1312	-38.358	142.09	-33.9426	-52.5826	131.93	-52.3012	-68.6936	121.382	-71.7214	-78.3944	155.496	-54.7229	-41.9861	136.819	-80.3903	-31.3802	134.912	-64.8962	9.42951	166.669	-66.0745	-29.634	148.207	-84.8874	-7.55461	154.591	-61.7485	16.7023	176.762	-79.0921	-19.8569	157.568	-82.8946	-1.28042	160.892	-65.5978	20.1255	194.98	-28.2202	-2.83381	200.093	-25.0033	33.2267	169.418	-5.70578	14.3144	
183	1.525	133.703	-20.625	25.7557	111.832	-37.2441	6.17241	93.1672	-48.3102	-14.2698	81.1216	-60.7551	-29.742	139.494	-38.4621	-46.447	120.535	-55.3918	-63.0354	106.344	-73.9998	-72.7519	148.567	-63.4407	-37.7091	125.277	-83.8457	-21.5627	132.95	-66.2163	13.5745	155.267	-76.7558	-24.9662	138.068	-85.1755	0.473132	145.762	-61.9899	20.4998	171.272	-84.7766	-12.8458	150.447	-88.1357	6.39377	156.998	-62.9867	24.7803	191.445	-35.0487	-1.75564	197.265	-28.0337	32.5718	166.698	-9.4605	11.8678	
184	1.53333	131.187	-16.2599	23.7858	110.795	-33.7517	6.7548	89.231	-44.8087	-11.2119	76.987	-55.629	-23.5679	129.562	-40.4734	-46.0903	111.426	-58.5511	-60.0557	96.6065	-76.0742	-66.2212	137.996	-66.8417	-34.9888	117.269	-82.048	-18.2927	126.223	-61.5107	18.6518	147.568	-75.8359	-19.5554	126.867	-81.9782	4.26071	141.576	-59.603	25.129	159.828	-84.5295	-9.15359	141.597	-89.3485	13.5976	152.986	-67.3865	30.7372	185.57	-40.3172	-0.349295	193.271	-29.8098	28.042	167.084	-12.618	11.9422	
185	1.54167	134.422	-11.6872	26.9919	107.239	-24.0296	13.1118	88.4345	-36.9164	-5.23761	70.3399	-45.7381	-17.9085	124.245	-40.9334	-44.2263	105.442	-53.0168	-54.3374	82.9775	-74.0596	-59.243	126.326	-63.0363	-33.0606	106.037	-74.7388	-10.2398	118.223	-56.3367	19.2258	135.128	-77.2432	-15.0307	120.003	-80.7734	7.144	132.366	-54.491	27.7439	149.834	-83.9629	-5.48658	130.123	-81.6205	17.3232	145.941	-64.1583	33.1306	181.601	-45.1437	-2.13232	193.352	-34.806	32.2283	168.982	-11.538	12.191	
186	1.55	136.627	-5.84544	27.4737	106.911	-17.1181	12.9456	85.2544	-28.7056	-4.95313	66.2357	-34.2189	-14.1336	121.933	-35.5396	-40.5836	96.4513	-48.5709	-50.0628	74.6541	-64.0098	-52.4141	123.272	-58.3392	-30.386	96.1727	-65.7721	-11.9287	113.842	-47.1708	23.6966	128.427	-75.2316	-12.4049	112.123	-73.0875	11.0653	127.395	-49.4609	29.7693	137.887	-86.6613	-0.182845	121.954	-74.1424	18.2146	138.066	-55.839	33.4836	178.748	-46.7504	0.781537	193.437	-38.1005	29.2631	169.659	-13.4678	5.71756	
187	1.55833	140.82	-0.667295	26.5922	110.164	-11.5738	11.748	84.3759	-16.5197	-0.794515	64.7648	-21.2268	-10.601	122.196	-35.2725	-39.2082	91.5722	-41.9778	-49.3682	71.3704	-54.7942	-49.842	119.026	-55.1699	-27.8755	90.3449	-54.1773	-6.46477	109.402	-40.217	24.6523	120.898	-68.6178	-11.183	103.886	-62.6081	11.015	126.164	-41.5613	31.028	127.825	-81.92	3.54481	116.094	-67.9376	25.1443	138.177	-49.012	36.2235	178.276	-52.0459	2.22489	190.663	-40.8286	26.7555	171.246	-14.8737	5.4325	
188	1.56667	146.363	2.70904	24.3491	112.565	1.2602	11.8938	87.0275	-8.14419	-5.03843	67.2865	-9.70982	-11.9352	119.836	-29.6939	-41.215	92.08	-36.2483	-46.8929	69.7551	-43.6699	-48.7123	113.331	-49.2855	-28.8537	88.8255	-49.7119	-9.12843	105.677	-31.4755	26.0059	117.768	-61.2062	-10.9923	99.4885	-54.9725	12.8028	123.741	-36.5715	32.0556	124.217	-72.8673	2.96019	110.019	-56.6031	22.6732	135.229	-40.7162	33.9412	174.195	-52.9669	5.38026	188.875	-42.6997	26.0731	177.687	-18.4182	8.52672	
189	1.575	149.346	8.77284	18.6031	117.14	6.46052	5.91395	89.2957	1.90868	-9.18706	71.6831	-1.71238	-16.4112	124.173	-24.4909	-39.9878	93.7998	-25.7906	-49.4282	70.9451	-28.2421	-51.454	113.052	-42.6759	-29.4234	85.5589	-32.6151	-8.61662	100.077	-20.012	23.7315	112.12	-54.5259	-10.7535	97.19	-41.6535	11.1313	121.743	-30.8788	31.0922	120.532	-69.9486	5.93684	107.977	-46.9132	20.9022	131.035	-37.1466	32.1459	172.401	-54.8078	4.71668	188.536	-43.344	28.6797	178.28	-16.017	5.5179	
190	1.58333	158.815	10.3019	19.5373	125.013	10.5815	3.10153	99.0012	9.93612	-10.1635	77.6871	7.02906	-21.8442	126.311	-21.2856	-43.4488	99.6323	-20.4184	-51.3597	73.1451	-21.3593	-54.7141	117.608	-38.4967	-29.8122	87.933	-26.5284	-10.9318	102.951	-13.8478	23.0171	111.275	-48.1305	-11.3187	97.2336	-33.8514	8.56245	124.939	-21.4355	28.991	119.229	-61.4793	2.73334	104.957	-40.8128	18.822	129.915	-32.3066	31.5737	168.186	-56.4384	4.33408	188.259	-45.4147	31.6627	182.388	-17.5076	3.77461	
